<svg width="500" height="500" viewBox="0 0 500 500" fill="none" xmlns="http://www.w3.org/2000/svg">
<rect width="500" height="500" rx="90" fill="black"/>
<path d="M190.957 277.105L170.654 394H132.1L183.984 95.4062L283.652 95.6113C314.414 95.6113 338.135 103.814 354.814 120.221C371.494 136.49 378.672 158.16 376.348 185.23C373.887 213.805 362.471 236.295 342.1 252.701C321.865 269.107 295.137 277.311 261.914 277.311L190.957 277.105ZM196.494 244.908L262.939 245.113C283.857 245.113 301.016 239.85 314.414 229.322C327.812 218.795 335.674 204.166 337.998 185.436C340.186 168.619 336.699 155.016 327.539 144.625C318.379 134.098 305.049 128.561 287.549 128.014L216.797 127.809L196.494 244.908Z" fill="#00C2FF"/>
</svg>
